<?xml version="1.0" standalone="no"?>
<!DOCTYPE svg PUBLIC "-//W3C//DTD SVG 20010904//EN"
 "http://www.w3.org/TR/2001/REC-SVG-20010904/DTD/svg10.dtd">
<svg version="1.0" xmlns="http://www.w3.org/2000/svg"
 width="500.000000pt" height="500.000000pt" viewBox="0 0 500.000000 500.000000"
 preserveAspectRatio="xMidYMid meet">

<g transform="translate(0.000000,500.000000) scale(0.100000,-0.100000)"
fill="#000000" stroke="none">
<path d="M2984 3556 c-18 -8 -36 -20 -40 -28 -5 -7 -11 -272 -14 -588 l-5
-575 -296 -3 c-240 -2 -298 -5 -302 -16 -6 -14 118 -455 131 -468 4 -4 111 -9
237 -10 l230 -3 3 -27 3 -28 -221 0 c-133 0 -229 -4 -241 -10 -28 -15 -23 -40
9 -52 l28 -11 -28 -28 c-58 -57 -19 -149 62 -149 84 0 123 101 59 154 l-31 26
182 0 181 0 -20 -29 c-30 -41 -27 -92 5 -125 l27 -26 479 0 c491 0 506 1 535
39 17 22 19 1892 2 1923 -24 46 -50 48 -511 48 -343 -1 -440 -4 -464 -14z
m244 -86 c12 -19 23 -20 222 -20 199 0 210 1 222 20 12 18 24 20 120 20 84 0
110 -3 122 -16 14 -14 16 -110 16 -911 0 -820 -1 -898 -17 -915 -15 -17 -42
-18 -430 -18 l-413 0 0 29 c0 20 -9 37 -29 54 l-30 25 39 6 c76 12 107 102 54
157 -23 25 -25 31 -15 61 9 29 62 267 92 415 l10 52 92 3 c91 3 92 3 92 28 0
25 0 25 -109 28 -66 2 -113 -1 -121 -8 -7 -6 -16 -27 -19 -48 -14 -74 -11 -72
-87 -72 l-69 0 0 546 c0 357 4 552 10 565 10 17 22 19 123 19 101 0 113 -2
125 -20z m-170 -1609 c8 -5 12 -17 10 -27 -2 -15 -14 -20 -51 -22 -46 -3 -47
-3 -47 27 0 29 2 31 38 31 20 0 43 -4 50 -9z"/>
<path d="M3626 2914 c-20 -20 -20 -38 0 -59 13 -13 35 -15 116 -13 89 3 102 5
114 23 12 18 11 24 -2 43 -14 20 -23 22 -114 22 -76 0 -102 -4 -114 -16z"/>
<path d="M3632 2324 c-21 -15 -22 -21 -22 -178 0 -113 4 -166 12 -174 8 -8 49
-12 120 -12 96 0 108 2 118 19 5 11 10 86 10 170 0 191 0 191 -128 191 -63 0
-94 -4 -110 -16z"/>
<path d="M995 3461 c-73 -18 -105 -54 -105 -117 0 -52 27 -77 109 -100 31 -8
63 -19 71 -23 20 -11 25 -42 8 -52 -21 -14 -95 -10 -135 6 -20 8 -37 14 -38
13 -20 -38 -25 -62 -13 -70 24 -15 82 -28 128 -28 103 0 160 39 160 109 0 64
-33 90 -156 121 -50 12 -61 33 -34 60 24 24 53 25 110 5 24 -8 44 -14 45 -13
6 8 25 48 25 53 0 22 -127 48 -175 36z"/>
<path d="M1250 3275 l0 -185 35 0 35 0 0 95 c0 52 3 95 8 95 4 0 21 -26 38
-58 27 -51 34 -57 65 -60 34 -3 36 -1 64 58 16 33 32 60 37 60 4 0 8 -43 8
-95 l0 -95 40 0 40 0 0 185 0 185 -37 0 c-38 0 -38 0 -93 -105 -63 -121 -54
-122 -125 17 -44 85 -47 88 -80 88 l-35 0 0 -185z"/>
<path d="M1786 3388 c-19 -40 -57 -122 -85 -182 -28 -60 -51 -110 -51 -112 0
-2 20 -4 43 -4 42 0 45 2 62 40 l18 40 86 0 86 0 17 -40 c15 -37 19 -40 57
-40 23 0 41 3 41 8 0 4 -37 87 -82 184 l-83 178 -38 0 c-38 0 -39 -1 -71 -72z
m100 -83 c13 -31 24 -58 24 -60 0 -3 -24 -5 -54 -5 l-55 0 26 60 c15 33 28 60
30 60 2 0 15 -25 29 -55z"/>
<path d="M2100 3275 l0 -185 45 0 45 0 0 71 0 70 32 -3 c28 -3 36 -11 67 -70
l36 -68 48 0 c26 0 47 3 47 6 0 16 -63 115 -81 128 -19 13 -19 14 15 34 44 26
61 76 43 130 -18 57 -59 72 -189 72 l-108 0 0 -185z m208 103 c18 -18 14 -56
-7 -68 -11 -5 -40 -10 -65 -10 l-46 0 0 45 0 45 53 0 c29 0 58 -5 65 -12z"/>
<path d="M2440 3425 l0 -35 60 0 60 0 0 -150 0 -150 45 0 45 0 0 150 0 150 55
0 55 0 0 35 0 35 -160 0 -160 0 0 -35z"/>
<path d="M1354 2889 c-57 -13 -99 -58 -99 -109 0 -56 30 -83 121 -109 76 -22
96 -40 74 -66 -16 -20 -96 -20 -143 0 -35 14 -35 14 -48 -16 -14 -35 -8 -42
51 -59 89 -25 199 -1 225 51 36 68 5 127 -76 149 -93 25 -114 35 -114 55 0 11
12 26 27 34 27 15 45 13 128 -15 10 -3 19 5 27 26 11 30 11 32 -20 44 -47 19
-106 25 -153 15z"/>
<path d="M2154 2890 c-50 -11 -91 -41 -114 -82 -31 -55 -26 -167 8 -216 74
-103 254 -93 310 18 37 74 28 176 -21 228 -42 45 -119 67 -183 52z m110 -89
c20 -21 33 -102 22 -146 -14 -54 -73 -81 -131 -59 -42 17 -62 145 -29 192 31
45 99 51 138 13z"/>
<path d="M1610 2705 l0 -185 45 0 45 0 0 75 0 75 80 0 80 0 0 -75 0 -75 45 0
45 0 0 185 0 185 -45 0 -45 0 0 -70 0 -70 -80 0 -80 0 0 70 0 70 -45 0 -45 0
0 -185z"/>
<path d="M2450 2706 l0 -186 45 0 45 0 0 69 0 69 76 4 c71 3 78 6 105 36 41
46 41 108 0 154 l-29 33 -121 3 -121 4 0 -186z m212 88 c19 -41 1 -58 -66 -62
l-56 -3 0 46 0 45 55 0 c50 0 57 -3 67 -26z"/>
</g>
</svg>
